<svg xmlns="http://www.w3.org/2000/svg" xmlns:xlink="http://www.w3.org/1999/xlink" width="500" zoomAndPan="magnify" viewBox="0 0 375 374.999991" height="500" preserveAspectRatio="xMidYMid meet" version="1.0"><defs><g/><clipPath id="cd364863ee"><path d="M 94.609375 210.816406 L 187.5 210.816406 L 187.5 221.148438 L 94.609375 221.148438 Z M 94.609375 210.816406 " clip-rule="nonzero"/></clipPath><clipPath id="1051e72d6a"><path d="M 194.894531 157.273438 L 287.789062 157.273438 L 287.789062 167.601562 L 194.894531 167.601562 Z M 194.894531 157.273438 " clip-rule="nonzero"/></clipPath><clipPath id="0a353b4733"><path d="M 187.5 157.273438 L 287.789062 157.273438 L 287.789062 167.601562 L 187.5 167.601562 Z M 187.5 157.273438 " clip-rule="nonzero"/></clipPath></defs><g clip-path="url(#cd364863ee)"><path fill="#000000" d="M 94.609375 210.816406 L 187.496094 210.816406 L 187.496094 221.148438 L 94.609375 221.148438 Z M 94.609375 210.816406 " fill-opacity="1" fill-rule="nonzero"/></g><g clip-path="url(#1051e72d6a)"><path fill="#000000" d="M 194.894531 157.273438 L 287.785156 157.273438 L 287.785156 167.601562 L 194.894531 167.601562 Z M 194.894531 157.273438 " fill-opacity="1" fill-rule="nonzero"/></g><g fill="#000000" fill-opacity="1"><g transform="translate(58.850156, 196.662696)"><g><path d="M 3.15625 0 L 3.15625 -26.25 L 14.359375 -26.25 C 16.359375 -26.25 18.09375 -25.882812 19.5625 -25.15625 C 21.039062 -24.4375 22.179688 -23.398438 22.984375 -22.046875 C 23.785156 -20.703125 24.1875 -19.09375 24.1875 -17.21875 C 24.1875 -15.289062 23.75 -13.628906 22.875 -12.234375 C 22 -10.847656 20.773438 -9.804688 19.203125 -9.109375 L 24.640625 0 L 17.734375 0 L 13.046875 -8.171875 L 9.109375 -8.171875 L 9.109375 0 Z M 9.03125 -13.203125 L 13.578125 -13.203125 C 15.046875 -13.203125 16.175781 -13.546875 16.96875 -14.234375 C 17.757812 -14.921875 18.15625 -15.898438 18.15625 -17.171875 C 18.15625 -18.453125 17.757812 -19.4375 16.96875 -20.125 C 16.175781 -20.8125 15.046875 -21.15625 13.578125 -21.15625 L 9.03125 -21.15625 Z M 9.03125 -13.203125 "/></g></g></g><g fill="#000000" fill-opacity="1"><g transform="translate(93.015374, 196.662696)"><g><path d="M 15.59375 0.53125 C 12.875 0.53125 10.457031 -0.0507812 8.34375 -1.21875 C 6.226562 -2.382812 4.578125 -3.988281 3.390625 -6.03125 C 2.203125 -8.082031 1.609375 -10.445312 1.609375 -13.125 C 1.609375 -15.800781 2.203125 -18.160156 3.390625 -20.203125 C 4.578125 -22.253906 6.226562 -23.863281 8.34375 -25.03125 C 10.457031 -26.195312 12.875 -26.78125 15.59375 -26.78125 C 18.34375 -26.78125 20.769531 -26.195312 22.875 -25.03125 C 24.976562 -23.863281 26.628906 -22.253906 27.828125 -20.203125 C 29.023438 -18.160156 29.625 -15.800781 29.625 -13.125 C 29.625 -10.445312 29.023438 -8.082031 27.828125 -6.03125 C 26.628906 -3.988281 24.976562 -2.382812 22.875 -1.21875 C 20.769531 -0.0507812 18.34375 0.53125 15.59375 0.53125 Z M 7.6875 -13.125 C 7.6875 -11.550781 8.023438 -10.160156 8.703125 -8.953125 C 9.378906 -7.753906 10.3125 -6.816406 11.5 -6.140625 C 12.6875 -5.472656 14.050781 -5.140625 15.59375 -5.140625 C 17.175781 -5.140625 18.5625 -5.472656 19.75 -6.140625 C 20.9375 -6.816406 21.859375 -7.753906 22.515625 -8.953125 C 23.179688 -10.160156 23.515625 -11.550781 23.515625 -13.125 C 23.515625 -14.695312 23.179688 -16.082031 22.515625 -17.28125 C 21.859375 -18.488281 20.9375 -19.425781 19.75 -20.09375 C 18.5625 -20.769531 17.175781 -21.109375 15.59375 -21.109375 C 14.050781 -21.109375 12.6875 -20.769531 11.5 -20.09375 C 10.3125 -19.425781 9.378906 -18.488281 8.703125 -17.28125 C 8.023438 -16.082031 7.6875 -14.695312 7.6875 -13.125 Z M 7.6875 -13.125 "/></g></g></g><g fill="#000000" fill-opacity="1"><g transform="translate(132.018369, 196.662696)"><g><path d="M 19.390625 0 L 19.390625 -10.578125 L 9.109375 -10.578125 L 9.109375 0 L 3.15625 0 L 3.15625 -26.25 L 9.109375 -26.25 L 9.109375 -16.15625 L 19.390625 -16.15625 L 19.390625 -26.25 L 25.34375 -26.25 L 25.34375 0 Z M 19.390625 0 "/></g></g></g><g fill="#000000" fill-opacity="1"><g transform="translate(168.283709, 196.662696)"><g><path d="M 3.15625 0 L 3.15625 -26.25 L 20.40625 -26.25 L 20.40625 -21.21875 L 9.078125 -21.21875 L 9.078125 -15.78125 L 19.390625 -15.78125 L 19.390625 -10.796875 L 9.078125 -10.796875 L 9.078125 -5.0625 L 20.8125 -5.0625 L 20.8125 0 Z M 3.15625 0 "/></g></g></g><g fill="#000000" fill-opacity="1"><g transform="translate(197.799865, 213.432744)"><g><path d="M 9.203125 0.390625 C 7.554688 0.390625 6.140625 0.117188 4.953125 -0.421875 C 3.765625 -0.960938 2.847656 -1.734375 2.203125 -2.734375 C 1.554688 -3.734375 1.234375 -4.90625 1.234375 -6.25 L 5.609375 -6.25 C 5.609375 -5.320312 5.929688 -4.59375 6.578125 -4.0625 C 7.222656 -3.539062 8.085938 -3.28125 9.171875 -3.28125 C 10.109375 -3.28125 10.847656 -3.460938 11.390625 -3.828125 C 11.929688 -4.191406 12.203125 -4.703125 12.203125 -5.359375 C 12.203125 -6.046875 11.875 -6.601562 11.21875 -7.03125 C 10.5625 -7.46875 9.539062 -7.835938 8.15625 -8.140625 C 5.863281 -8.617188 4.164062 -9.351562 3.0625 -10.34375 C 1.957031 -11.332031 1.40625 -12.625 1.40625 -14.21875 C 1.40625 -16.007812 2.054688 -17.425781 3.359375 -18.46875 C 4.671875 -19.507812 6.457031 -20.03125 8.71875 -20.03125 C 10.269531 -20.03125 11.613281 -19.757812 12.75 -19.21875 C 13.894531 -18.6875 14.78125 -17.9375 15.40625 -16.96875 C 16.03125 -16.007812 16.34375 -14.867188 16.34375 -13.546875 L 12.0625 -13.546875 C 12.0625 -14.421875 11.769531 -15.109375 11.1875 -15.609375 C 10.613281 -16.117188 9.8125 -16.375 8.78125 -16.375 C 7.84375 -16.375 7.101562 -16.191406 6.5625 -15.828125 C 6.019531 -15.460938 5.75 -14.953125 5.75 -14.296875 C 5.75 -13.703125 6.046875 -13.195312 6.640625 -12.78125 C 7.242188 -12.375 8.289062 -11.992188 9.78125 -11.640625 C 12.238281 -11.054688 14.007812 -10.28125 15.09375 -9.3125 C 16.175781 -8.34375 16.71875 -7.082031 16.71875 -5.53125 C 16.71875 -3.675781 16.046875 -2.222656 14.703125 -1.171875 C 13.367188 -0.128906 11.535156 0.390625 9.203125 0.390625 Z M 9.203125 0.390625 "/></g></g></g><g fill="#000000" fill-opacity="1"><g transform="translate(221.589382, 213.432744)"><g><path d="M 7.0625 0 L 7.0625 -15.453125 L 0.84375 -15.453125 L 0.84375 -19.625 L 17.75 -19.625 L 17.75 -15.453125 L 11.53125 -15.453125 L 11.53125 0 Z M 7.0625 0 "/></g></g></g><g fill="#000000" fill-opacity="1"><g transform="translate(245.996065, 213.432744)"><g><path d="M 10.375 0.390625 C 8.675781 0.390625 7.210938 0.0507812 5.984375 -0.625 C 4.765625 -1.3125 3.820312 -2.285156 3.15625 -3.546875 C 2.488281 -4.804688 2.15625 -6.316406 2.15625 -8.078125 L 2.15625 -19.625 L 6.625 -19.625 L 6.625 -8.390625 C 6.625 -5.359375 7.875 -3.84375 10.375 -3.84375 C 12.882812 -3.84375 14.140625 -5.359375 14.140625 -8.390625 L 14.140625 -19.625 L 18.59375 -19.625 L 18.59375 -8.078125 C 18.59375 -6.316406 18.257812 -4.804688 17.59375 -3.546875 C 16.9375 -2.285156 15.992188 -1.3125 14.765625 -0.625 C 13.535156 0.0507812 12.070312 0.390625 10.375 0.390625 Z M 10.375 0.390625 "/></g></g></g><g fill="#000000" fill-opacity="1"><g transform="translate(272.562831, 213.432744)"><g><path d="M 2.359375 0 L 2.359375 -19.625 L 10.125 -19.625 C 12.195312 -19.625 14.007812 -19.210938 15.5625 -18.390625 C 17.113281 -17.578125 18.316406 -16.429688 19.171875 -14.953125 C 20.035156 -13.472656 20.46875 -11.757812 20.46875 -9.8125 C 20.46875 -7.851562 20.035156 -6.140625 19.171875 -4.671875 C 18.316406 -3.203125 17.113281 -2.054688 15.5625 -1.234375 C 14.007812 -0.410156 12.195312 0 10.125 0 Z M 6.8125 -4.09375 L 10.046875 -4.09375 C 11.203125 -4.09375 12.21875 -4.332031 13.09375 -4.8125 C 13.976562 -5.289062 14.664062 -5.957031 15.15625 -6.8125 C 15.65625 -7.675781 15.90625 -8.675781 15.90625 -9.8125 C 15.90625 -10.976562 15.65625 -11.984375 15.15625 -12.828125 C 14.664062 -13.679688 13.972656 -14.34375 13.078125 -14.8125 C 12.191406 -15.289062 11.160156 -15.53125 9.984375 -15.53125 L 6.8125 -15.53125 Z M 6.8125 -4.09375 "/></g></g></g><g fill="#000000" fill-opacity="1"><g transform="translate(300.027292, 213.432744)"><g><path d="M 2.359375 0 L 2.359375 -19.625 L 6.8125 -19.625 L 6.8125 0 Z M 2.359375 0 "/></g></g></g><g fill="#000000" fill-opacity="1"><g transform="translate(315.008164, 213.432744)"><g><path d="M 11.671875 0.390625 C 9.628906 0.390625 7.816406 -0.0390625 6.234375 -0.90625 C 4.660156 -1.78125 3.425781 -2.984375 2.53125 -4.515625 C 1.644531 -6.046875 1.203125 -7.8125 1.203125 -9.8125 C 1.203125 -11.8125 1.644531 -13.578125 2.53125 -15.109375 C 3.425781 -16.648438 4.660156 -17.851562 6.234375 -18.71875 C 7.816406 -19.59375 9.628906 -20.03125 11.671875 -20.03125 C 13.722656 -20.03125 15.535156 -19.59375 17.109375 -18.71875 C 18.679688 -17.851562 19.914062 -16.648438 20.8125 -15.109375 C 21.707031 -13.578125 22.15625 -11.8125 22.15625 -9.8125 C 22.15625 -7.8125 21.707031 -6.046875 20.8125 -4.515625 C 19.914062 -2.984375 18.679688 -1.78125 17.109375 -0.90625 C 15.535156 -0.0390625 13.722656 0.390625 11.671875 0.390625 Z M 5.75 -9.8125 C 5.75 -8.632812 6 -7.597656 6.5 -6.703125 C 7.007812 -5.804688 7.707031 -5.101562 8.59375 -4.59375 C 9.476562 -4.09375 10.503906 -3.84375 11.671875 -3.84375 C 12.847656 -3.84375 13.878906 -4.09375 14.765625 -4.59375 C 15.648438 -5.101562 16.335938 -5.804688 16.828125 -6.703125 C 17.328125 -7.597656 17.578125 -8.632812 17.578125 -9.8125 C 17.578125 -10.988281 17.328125 -12.023438 16.828125 -12.921875 C 16.335938 -13.828125 15.648438 -14.53125 14.765625 -15.03125 C 13.878906 -15.539062 12.847656 -15.796875 11.671875 -15.796875 C 10.503906 -15.796875 9.476562 -15.539062 8.59375 -15.03125 C 7.707031 -14.53125 7.007812 -13.828125 6.5 -12.921875 C 6 -12.023438 5.75 -10.988281 5.75 -9.8125 Z M 5.75 -9.8125 "/></g></g></g><g clip-path="url(#0a353b4733)"><path fill="#000000" d="M 187.5 157.273438 L 287.773438 157.273438 L 287.773438 167.601562 L 187.5 167.601562 Z M 187.5 157.273438 " fill-opacity="1" fill-rule="nonzero"/></g></svg>